<svg xmlns="http://www.w3.org/2000/svg" xmlns:xlink="http://www.w3.org/1999/xlink" width="1218" height="431" viewBox="0 0 1218 431">
  <defs>
    <linearGradient id="linear-gradient" x1="1" x2="0" y2="0.964" gradientUnits="objectBoundingBox">
      <stop offset="0" stop-color="#a26f73"/>
      <stop offset="1" stop-color="#5a5f6d"/>
    </linearGradient>
  </defs>
  <g id="Gruppe_34" data-name="Gruppe 34" transform="translate(-351 -2684)">
    <rect id="Rechteck_18" data-name="Rechteck 18" width="1218" height="431" transform="translate(351 2684)" fill="url(#linear-gradient)"/>
    <g id="Gruppe_11" data-name="Gruppe 11" transform="translate(680.78 2722.548)">
      <g id="Gruppe_10" data-name="Gruppe 10" transform="translate(0 0)">
        <rect id="Rechteck_9" data-name="Rechteck 9" width="395.317" height="242.519" rx="16" transform="translate(0)" fill="#3e3a33"/>
        <rect id="Rechteck_33" data-name="Rechteck 33" width="198.474" height="21.207" rx="10.603" transform="translate(98.421 267.532)" fill="#3e3a33"/>
        <rect id="Rechteck_34" data-name="Rechteck 34" width="22.838" height="46.764" rx="11.419" transform="translate(186.511 233.275)" fill="#3e3a33"/>
        <rect id="Rechteck_10" data-name="Rechteck 10" width="371.391" height="216.418" rx="10" transform="translate(11.963 10.875)" fill="#5d574e"/>
        <line id="Linie_11" data-name="Linie 11" y1="96.518" transform="translate(44.861 46.764)" fill="none" stroke="#7e7e7e" stroke-linecap="round" stroke-width="39"/>
      </g>
      <ellipse id="Ellipse_6" data-name="Ellipse 6" cx="3.534" cy="3.534" rx="3.534" ry="3.534" transform="translate(358.341 231.644)" fill="#5d574e"/>
      <ellipse id="Ellipse_7" data-name="Ellipse 7" cx="3.534" cy="3.534" rx="3.534" ry="3.534" transform="translate(344.203 231.644)" fill="#5d574e"/>
    </g>
    <g id="Gruppe_7" data-name="Gruppe 7" transform="translate(998.15 2866.917)">
      <path id="Rechteck_7" data-name="Rechteck 7" d="M20,0H230.675a20,20,0,0,1,20,20V164.761a0,0,0,0,1,0,0H0a0,0,0,0,1,0,0V20A20,20,0,0,1,20,0Z" transform="translate(40.426 0)" fill="#3e3a33"/>
      <path id="Pfad_4" data-name="Pfad 4" d="M2270.958,117h250.891s37.317,31.209,39.784,33.5,3.62,4.489,2.394,7.023-1.027,3-7.176,3.12-316.07.264-320,.15-4.928-2.023-5.343-3.062a5.607,5.607,0,0,1,1.509-6.627C2235.932,148.366,2270.958,117,2270.958,117Z" transform="translate(-2231.012 48.699)" fill="#3e3a33"/>
      <path id="Rechteck_11" data-name="Rechteck 11" d="M10,0H218.381a10,10,0,0,1,10,10V136.922a5,5,0,0,1-5,5H5a5,5,0,0,1-5-5V10A10,10,0,0,1,10,0Z" transform="translate(51.302 11.419)" fill="#5d574e"/>
      <path id="Pfad_15" data-name="Pfad 15" d="M58.739,0H-9.784" transform="translate(203.766 138.456)" fill="none" stroke="#7e7e7e" stroke-linecap="round" stroke-width="8"/>
      <line id="Linie_10" data-name="Linie 10" y1="19.615" transform="translate(262.505 118.842)" fill="none" stroke="#7e7e7e" stroke-linecap="round" stroke-width="8"/>
    </g>
    <g id="Gruppe_6" data-name="Gruppe 6" transform="translate(588.341 2805.744)">
      <rect id="Rechteck_9-2" data-name="Rechteck 9" width="137.572" height="212.612" rx="16" transform="translate(0 0)" fill="#3e3a33"/>
      <rect id="Rechteck_10-2" data-name="Rechteck 10" width="116.909" height="171.286" rx="10" transform="translate(10.331 11.419)" fill="#5d574e"/>
      <rect id="Rechteck_12" data-name="Rechteck 12" width="19.576" height="19.576" rx="9.788" transform="translate(59.27 187.599)" fill="#5d574e"/>
      <g id="Ellipse_1" data-name="Ellipse 1" transform="translate(64.164 192.493)" fill="none" stroke="#3e3a33" stroke-width="5">
        <ellipse cx="4.894" cy="4.894" rx="4.894" ry="4.894" stroke="none"/>
        <ellipse cx="4.894" cy="4.894" rx="2.394" ry="2.394" fill="none"/>
      </g>
    </g>
    <path id="Pfad_24" data-name="Pfad 24" d="M78.228,0H32.935" transform="translate(622.948 2972.128)" fill="none" stroke="#7e7e7e" stroke-linecap="round" stroke-width="8"/>
    <line id="Linie_12" data-name="Linie 12" y1="19.615" transform="translate(701.177 2952.513)" fill="none" stroke="#7e7e7e" stroke-linecap="round" stroke-width="8"/>
    <g id="passx" transform="translate(829.813 2771.538)">
      <path id="Pfad_1" data-name="Pfad 1" d="M80.34-249.291a39.864,39.864,0,0,0-28.765,21.479c-3.643,7.4-3.915,9.081-4.133,25.666l-.272,14.79-3.534,1.2c-5.981,1.958-5.655-.109-5.492,31.865l.163,27.243,1.305,1.414c2.393,2.556,18.379,7.178,31.321,9.081,7.232,1.088,25.666.924,33.278-.272,12.343-1.9,27.025-6.253,29.526-8.755l1.359-1.359.163-27.351c.163-31.973.489-29.907-5.492-31.865l-3.534-1.2-.272-14.79c-.272-16.585-.544-18.27-4.133-25.666a38.825,38.825,0,0,0-24.252-20.337A47.561,47.561,0,0,0,80.34-249.291Zm13.866,14.138a27.339,27.339,0,0,1,16.748,15.606c1.142,2.882,1.251,4.187,1.468,15.824.217,12.18.163,12.724-.816,12.4-9.679-2.991-40.075-2.991-49.754,0-.924.272-.979-.489-.979-10.767,0-14.845.87-18.379,5.981-24.85C73-234.718,84.527-238.143,94.206-235.153Zm-7.776,71.287c2.991,4.459,5.438,8.265,5.438,8.374s-2.447,3.915-5.438,8.374l-5.438,8.211H75.827a23.945,23.945,0,0,1-5.166-.272c0-.163,2.338-3.806,5.22-8.156,3.154-4.676,5.111-8.156,4.948-8.646-.163-.435-2.556-4.133-5.275-8.156-2.664-4.078-4.894-7.5-4.894-7.667a23.945,23.945,0,0,1,5.166-.272h5.166Zm12.4-1.414a81.883,81.883,0,0,1-4.839,6.8c-.326,0-5.383-7.4-5.383-7.885a21.251,21.251,0,0,1,1.794-2.991l1.74-2.719h11.147Zm0,19.576,4.459,6.8H92.14l-1.74-2.719a21.255,21.255,0,0,1-1.794-2.991c0-.489,5.057-7.885,5.383-7.885A81.875,81.875,0,0,1,98.828-145.7Z" transform="translate(-38.078 249.637)" fill="#76789b"/>
    </g>
    <g id="passx-2" data-name="passx" transform="translate(1137.639 2905.346)">
      <path id="Pfad_1-2" data-name="Pfad 1" d="M61.777-249.443A22.354,22.354,0,0,0,45.647-237.4c-2.043,4.147-2.2,5.092-2.317,14.392l-.152,8.294-1.982.671c-3.354,1.1-3.171-.061-3.08,17.868l.091,15.277.732.793c1.342,1.433,10.306,4.025,17.564,5.092a91.008,91.008,0,0,0,18.661-.152c6.922-1.067,15.155-3.507,16.557-4.909l.762-.762.091-15.338c.091-17.929.274-16.771-3.08-17.868l-1.982-.671-.152-8.294c-.152-9.3-.3-10.245-2.317-14.392a21.772,21.772,0,0,0-13.6-11.4A26.67,26.67,0,0,0,61.777-249.443Zm7.776,7.928a15.331,15.331,0,0,1,9.392,8.751c.64,1.616.7,2.348.823,8.873.122,6.83.091,7.135-.457,6.952-5.428-1.677-22.473-1.677-27.9,0-.518.152-.549-.274-.549-6.037,0-8.324.488-10.306,3.354-13.935A14.647,14.647,0,0,1,69.553-241.515Zm-4.36,39.975c1.677,2.5,3.049,4.635,3.049,4.7s-1.372,2.2-3.049,4.7l-3.049,4.6h-2.9a13.43,13.43,0,0,1-2.9-.152c0-.091,1.311-2.134,2.927-4.574,1.769-2.622,2.866-4.574,2.775-4.848-.091-.244-1.433-2.317-2.958-4.574-1.494-2.287-2.744-4.208-2.744-4.3a13.427,13.427,0,0,1,2.9-.152h2.9Zm6.952-.793a45.917,45.917,0,0,1-2.714,3.812,31.286,31.286,0,0,1-3.019-4.421,11.916,11.916,0,0,1,1.006-1.677l.976-1.525h6.251Zm0,10.977,2.5,3.812H68.394l-.976-1.525a11.918,11.918,0,0,1-1.006-1.677,31.286,31.286,0,0,1,3.019-4.421A45.915,45.915,0,0,1,72.145-191.355Z" transform="translate(-38.078 249.637)" fill="#76789b"/>
    </g>
    <g id="passx-3" data-name="passx" transform="translate(635.612 2853.933)">
      <path id="Pfad_1-3" data-name="Pfad 1" d="M56.777-249.484a17.638,17.638,0,0,0-12.727,9.5c-1.612,3.272-1.732,4.018-1.829,11.356l-.12,6.544-1.564.529c-2.647.866-2.5-.048-2.43,14.1L38.18-195.4l.577.626c1.059,1.131,8.132,3.176,13.858,4.018a71.805,71.805,0,0,0,14.724-.12c5.461-.842,11.957-2.767,13.064-3.874l.6-.6.072-12.1c.072-14.147.217-13.233-2.43-14.1l-1.564-.529-.12-6.544c-.12-7.338-.241-8.084-1.829-11.356a17.179,17.179,0,0,0-10.73-9A21.044,21.044,0,0,0,56.777-249.484Zm6.135,6.255a12.1,12.1,0,0,1,7.41,6.905c.505,1.275.553,1.853.65,7,.1,5.389.072,5.63-.361,5.486-4.283-1.323-17.732-1.323-22.014,0-.409.12-.433-.217-.433-4.764,0-6.568.385-8.132,2.647-11A11.557,11.557,0,0,1,62.913-243.228Zm-3.44,31.542c1.323,1.973,2.406,3.657,2.406,3.705s-1.083,1.732-2.406,3.705l-2.406,3.633H54.78a10.6,10.6,0,0,1-2.286-.12c0-.072,1.035-1.684,2.31-3.609a15.512,15.512,0,0,0,2.189-3.825c-.072-.192-1.131-1.829-2.334-3.609-1.179-1.8-2.165-3.32-2.165-3.392a10.6,10.6,0,0,1,2.286-.12h2.286Zm5.486-.626a36.229,36.229,0,0,1-2.141,3.007,24.685,24.685,0,0,1-2.382-3.489,9.4,9.4,0,0,1,.794-1.323l.77-1.2H66.93Zm0,8.661,1.973,3.007H62l-.77-1.2a9.406,9.406,0,0,1-.794-1.323,24.684,24.684,0,0,1,2.382-3.489A36.227,36.227,0,0,1,64.958-203.651Z" transform="translate(-38.078 249.637)" fill="#76789b"/>
    </g>
  </g>
</svg>
